<svg width="414" height="896" viewBox="0 0 414 896" fill="none" xmlns="http://www.w3.org/2000/svg">
  <defs>
    <radialGradient id="petalCore" cx="0" cy="0" r="1" gradientUnits="userSpaceOnUse" gradientTransform="translate(0 -20) scale(210 190)">
      <stop offset="0%" stop-color="white" stop-opacity="0.95" />
      <stop offset="55%" stop-color="white" stop-opacity="0.78" />
      <stop offset="100%" stop-color="white" stop-opacity="0.2" />
    </radialGradient>
    <radialGradient id="halo" cx="0" cy="0" r="1" gradientUnits="userSpaceOnUse" gradientTransform="translate(0 36) scale(240 260)">
      <stop offset="0%" stop-color="white" stop-opacity="0.55" />
      <stop offset="100%" stop-color="white" stop-opacity="0" />
    </radialGradient>
    <linearGradient id="stem" x1="0" y1="120" x2="0" y2="320" gradientUnits="userSpaceOnUse">
      <stop offset="0%" stop-color="white" stop-opacity="0.8" />
      <stop offset="100%" stop-color="white" stop-opacity="0.25" />
    </linearGradient>
  </defs>
  <rect width="414" height="896" fill="black" />
  <g transform="translate(207 398)">
    <path
      d="M0-188C46-188 88-162 105-121C118-90 118-54 103-24C128-42 152-63 170-90C190-120 202-154 203-190C242-132 248-60 220-2C188 64 118 106 42 114C68 134 88 164 94 200C104 256 68 310 16 334C64 328 108 308 146 276C204 228 244 160 254 86C263 18 240-52 192-102C152-144 94-168 34-170C-26-172-84-150-126-110C-176-62-204 8-200 80C-196 140-170 198-126 242C-82 288-24 316 36 320C-10 292-40 240-36 188C-32 140-4 100 38 82C-30 74-90 32-120-32C-138-72-140-122-122-162C-96-218-48-250 0-250C0-250 0-188 0-188Z"
      fill="url(#halo)"
    />
    <g fill="url(#petalCore)">
      <path
        d="M0-156C34-156 64-134 72-102C80-70 66-38 40-20C62-18 82-6 94 14C110 40 106 76 86 100C60 130 16 140-20 120C-58 100-80 58-72 18C-66-10-46-32-18-40C-68-44-106-84-110-134C-116-188-78-236-24-244C-16-246-8-246 0-246C0-246 0-156 0-156Z"
      />
      <path
        d="M0-122C20-122 38-108 42-88C46-68 34-48 16-40C34-38 50-26 58-8C68 14 64 40 48 56C30 74 4 80-18 68C-40 56-54 30-50 6C-46-14-30-30-10-34C-40-36-64-60-66-92C-70-126-46-156-12-160C-8-160-4-160 0-160C0-160 0-122 0-122Z"
      />
    </g>
    <g fill="white" fill-opacity="0.68">
      <path d="M-82-18C-58-18-38 2-38 28C-38 54-58 74-82 74C-106 74-126 54-126 28C-126 2-106-18-82-18Z" />
      <path d="M82-18C106-18 126 2 126 28C126 54 106 74 82 74C58 74 38 54 38 28C38 2 58-18 82-18Z" />
    </g>
    <path d="M-20 120C-20 120-10 46 0-6C10 46 20 120 20 120C20 140 12 156 0 156C-12 156-20 140-20 120Z" fill="url(#stem)" />
  </g>
</svg>
